<svg width="63" height="63" viewBox="0 0 63 63" fill="none" xmlns="http://www.w3.org/2000/svg">
<path d="M56.0011 44.7741C56.7204 42.7224 57.0897 40.5645 57.0938 38.3904C57.0844 34.7388 56.0621 31.1614 54.1405 28.0562C52.2189 24.9511 49.4734 22.4401 46.2095 20.8025C46.0021 18.6114 44.9849 16.5764 43.3569 15.0953C41.729 13.6142 39.6072 12.7935 37.4063 12.7935C35.2053 12.7935 33.0835 13.6142 31.4556 15.0953C29.8276 16.5764 28.8105 18.6114 28.603 20.8025C25.3392 22.4402 22.5938 24.9512 20.6722 28.0563C18.7506 31.1614 17.7282 34.7388 17.7188 38.3904C17.7228 40.5648 18.0922 42.723 18.8114 44.775C17.4092 45.2498 16.1484 46.0685 15.1443 47.1564C14.1403 48.2443 13.425 49.5665 13.0639 51.0022C12.7028 52.4379 12.7075 53.9412 13.0775 55.3747C13.4474 56.8081 14.1709 58.1259 15.1817 59.2075C16.1925 60.2891 17.4584 61.1 18.8635 61.5661C20.2686 62.0321 21.7682 62.1384 23.225 61.8752C24.6818 61.6121 26.0494 60.9878 27.2027 60.0596C28.356 59.1314 29.2581 57.9289 29.8266 56.5619C32.2282 57.5629 34.8044 58.0783 37.4063 58.0783C40.0082 58.0783 42.5843 57.5629 44.9859 56.5619C45.5536 57.931 46.4556 59.1358 47.6094 60.066C48.7632 60.9962 50.132 61.622 51.5903 61.8863C53.0486 62.1505 54.5499 62.0447 55.9568 61.5784C57.3636 61.1122 58.631 60.3005 59.6429 59.2176C60.6548 58.1347 61.3788 56.8153 61.7488 55.3801C62.1187 53.945 62.1227 52.4399 61.7603 51.0028C61.398 49.5657 60.6809 48.2425 59.6747 47.1543C58.6685 46.0661 57.4055 45.2477 56.0011 44.7741ZM54.0894 44.3439H54.0796C53.7728 44.3125 53.4646 44.2967 53.1563 44.2966C50.8074 44.2992 48.5555 45.2335 46.8946 46.8944C45.2337 48.5552 44.2995 50.8072 44.2969 53.156C44.3077 53.6593 44.3508 54.1614 44.4258 54.6591C42.2081 55.6114 39.8198 56.1025 37.4063 56.1025C34.9927 56.1025 32.6044 55.6114 30.3867 54.6591C30.4618 54.1614 30.5049 53.6593 30.5156 53.156C30.513 50.8072 29.5788 48.5552 27.9179 46.8944C26.257 45.2335 24.0051 44.2992 21.6563 44.2966C21.3476 44.2964 21.0391 44.3118 20.7319 44.3429H20.7231C20.0348 42.4339 19.6843 40.4196 19.6875 38.3904C19.6941 35.2629 20.5259 32.1926 22.0987 29.4895C23.6715 26.7863 25.9297 24.546 28.6453 22.9948C28.9648 25.0886 30.0239 26.9986 31.6306 28.3787C33.2373 29.7588 35.2853 30.5176 37.4033 30.5176C39.5214 30.5176 41.5693 29.7588 43.176 28.3787C44.7827 26.9986 45.8418 25.0886 46.1613 22.9948C48.878 24.5452 51.1374 26.7852 52.7113 29.4884C54.2852 32.1917 55.1178 35.2624 55.125 38.3904C55.1283 40.42 54.7779 42.4346 54.0894 44.3439Z" fill="#FABC3D"/>
<path d="M20.6168 18.3782C20.5133 18.1384 20.3187 17.9495 20.076 17.8532C19.8332 17.7568 19.5621 17.7608 19.3223 17.8643C19.0825 17.9679 18.8937 18.1624 18.7973 18.4051C18.7009 18.6479 18.705 18.919 18.8085 19.1588C19.3729 20.4589 20.2977 21.5703 21.4735 22.3617C22.6494 23.1531 24.0272 23.5914 25.4441 23.6249H25.768C27.181 23.5877 28.5539 23.1476 29.7252 22.3564C30.8964 21.5652 31.8172 20.4558 32.3791 19.1588C32.4826 18.919 32.4866 18.6479 32.3902 18.4051C32.2939 18.1624 32.105 17.9679 31.8652 17.8643C31.6254 17.7608 31.3543 17.7568 31.1116 17.8532C30.8688 17.9495 30.6743 18.1384 30.5708 18.3782C30.1616 19.3266 29.4905 20.1387 28.6362 20.7192C27.7819 21.2998 26.7798 21.6248 25.7473 21.6561H25.4707C24.4332 21.6297 23.425 21.3071 22.5649 20.7262C21.7048 20.1454 21.0289 19.3307 20.6168 18.3782Z" fill="white"/>
<path d="M41.5682 20.537C42.9281 19.8529 44.12 18.8767 45.0585 17.6781C45.9969 16.4795 46.6588 15.0882 46.9968 13.6039C47.3347 12.1196 47.3403 10.579 47.0132 9.09224C46.686 7.60552 46.0343 6.2095 45.1045 5.00412C44.1748 3.79875 42.99 2.81382 41.6351 2.11986C40.2802 1.4259 38.7887 1.04006 37.2672 0.989968C35.7457 0.939875 34.232 1.22676 32.8344 1.8301C31.4368 2.43344 30.1898 3.3383 29.1828 4.47991C26.8423 3.77559 24.3462 3.77559 22.0057 4.47991C20.9983 3.33872 19.751 2.43438 18.3532 1.83162C16.9554 1.22887 15.4417 0.942605 13.9203 0.993334C12.3989 1.04406 10.9076 1.43053 9.55302 2.12506C8.19848 2.81959 7.01424 3.80501 6.08509 5.01076C5.15595 6.21652 4.50487 7.61279 4.17848 9.09961C3.85209 10.5864 3.85846 12.127 4.19713 13.6111C4.5358 15.0952 5.1984 16.486 6.13749 17.684C7.07657 18.8821 8.26892 19.8577 9.62916 20.541C7.09426 21.4883 4.90861 23.1862 3.36397 25.4082C1.81933 27.6302 0.989196 30.2705 0.984375 32.9766V39.375C0.984375 39.6361 1.08809 39.8865 1.27269 40.0711C1.4573 40.2557 1.70768 40.3594 1.96875 40.3594H9.12122C8.94815 41.3343 8.86053 42.3224 8.85938 43.3125V49.2188C8.85938 49.4798 8.96309 49.7302 9.14769 49.9148C9.3323 50.0994 9.58268 50.2031 9.84375 50.2031H41.3438C41.6048 50.2031 41.8552 50.0994 42.0398 49.9148C42.2244 49.7302 42.3281 49.4798 42.3281 49.2188V43.3125C42.327 42.3224 42.2394 41.3343 42.0663 40.3594H49.2188C49.4798 40.3594 49.7302 40.2557 49.9148 40.0711C50.0994 39.8865 50.2031 39.6361 50.2031 39.375V32.9766C50.2084 30.269 49.3834 27.6248 47.8394 25.4006C46.2955 23.1763 44.1067 21.4789 41.5682 20.537ZM36.9141 2.95314C39.0878 2.956 41.1751 3.80468 42.734 5.31952C44.293 6.83436 45.2012 8.89643 45.2665 11.0692C45.3317 13.2419 44.5488 15.3548 43.0836 16.9604C41.6183 18.5661 39.5857 19.5385 37.4161 19.6718C37.7276 18.5549 37.8898 17.4017 37.8984 16.2422C37.8846 13.9684 37.2476 11.7419 36.0566 9.8048C34.8657 7.86774 33.1664 6.2943 31.1437 5.25559C32.6976 3.77171 34.7654 2.94663 36.9141 2.95314ZM29.1611 6.53528C31.4331 7.3659 33.3418 8.96712 34.5548 11.0601C35.7678 13.1531 36.2082 15.6052 35.7994 17.9895C35.3906 20.3738 34.1585 22.5391 32.3176 24.1085C30.4767 25.6779 28.1436 26.5518 25.7247 26.5781C25.5819 26.5781 25.517 26.5781 25.3516 26.5781C22.9461 26.5202 20.6361 25.6252 18.8194 24.0474C17.0027 22.4696 15.7931 20.3076 15.3988 17.934C15.0045 15.5603 15.4502 13.1234 16.6592 11.043C17.8682 8.96257 19.7649 7.36884 22.0224 6.53626C24.3288 5.70166 26.8546 5.70132 29.1611 6.53528ZM5.90625 11.3203C5.90514 9.68235 6.38482 8.08007 7.28581 6.71216C8.1868 5.34425 9.46947 4.27088 10.9748 3.62513C12.4801 2.97938 14.1418 2.78966 15.754 3.0795C17.3661 3.36933 18.8577 4.12597 20.0438 5.25559C18.0202 6.29326 16.3203 7.86646 15.1292 9.80375C13.9381 11.741 13.3016 13.9681 13.2891 16.2422C13.2979 17.4017 13.4601 18.5549 13.7714 19.6718C11.644 19.5415 9.64621 18.6053 8.18494 17.0536C6.72366 15.502 5.90878 13.4517 5.90625 11.3203ZM2.95312 32.9766C2.95791 31.4686 3.26293 29.9766 3.85038 28.5878C4.43783 27.1989 5.29596 25.9409 6.37472 24.8872C7.45347 23.8334 8.73125 23.005 10.1335 22.4503C11.5358 21.8956 13.0345 21.6257 14.5422 21.6563C15.7989 24.1781 17.8704 26.2016 20.4209 27.3991C17.8702 28.2351 15.5565 29.6689 13.6727 31.581C11.7889 33.493 10.3897 35.8279 9.59175 38.3906H2.95312V32.9766ZM40.3594 48.2344H10.8281V43.3125C10.8281 34.2356 18.963 28.0134 25.8458 28.5567C29.7191 28.6142 33.4139 30.1949 36.1303 32.9566C38.8467 35.7183 40.366 39.4388 40.3594 43.3125V48.2344ZM48.2344 38.3906H41.5948C40.7975 35.8296 39.4004 33.4959 37.5196 31.5834C35.6389 29.671 33.3288 28.2351 30.7814 27.3952C33.3223 26.1911 35.3868 24.1707 36.6453 21.6563C38.1547 21.6193 39.6561 21.8849 41.0612 22.4374C42.4663 22.9898 43.7466 23.818 44.8267 24.8729C45.9067 25.9279 46.7646 27.1885 47.3499 28.5802C47.9351 29.972 48.2359 31.4668 48.2344 32.9766V38.3906Z" fill="white"/>
<rect x="0.5" y="0.5" width="62" height="62" stroke="white"/>
</svg>
