<svg width="63" height="63" viewBox="0 0 63 63" fill="none" xmlns="http://www.w3.org/2000/svg">
<path d="M20.3888 55.9874L29.2482 47.2564C30.454 48.9056 31.9306 50.3487 33.604 51.5492L24.7447 60.2801C23.588 61.42 21.73 61.42 20.5734 60.2801L20.4011 60.1589C19.2322 59.0311 19.2199 57.1879 20.3519 56.048C20.3519 56.0117 20.3765 55.9995 20.3888 55.9874ZM62.0156 36.2093C62.0156 45.583 54.3005 53.1862 44.789 53.1862C35.2775 53.1862 27.5624 45.583 27.5624 36.2093C27.5624 26.8356 35.2775 19.2324 44.789 19.2324C54.3005 19.2445 62.0033 26.8478 62.0156 36.2093ZM57.5859 36.2093C57.5859 29.2488 51.8519 23.5979 44.789 23.5979C37.7261 23.5979 31.9921 29.2488 31.9921 36.2093C31.9921 43.1698 37.7261 48.8207 44.789 48.8207C51.8519 48.8207 57.5859 43.182 57.5859 36.2093ZM55.6171 36.2093C55.6171 42.1027 50.7691 46.8805 44.789 46.8805C38.8089 46.8805 33.9609 42.1027 33.9609 36.2093C33.9609 30.3159 38.8089 25.5381 44.789 25.5381C50.7691 25.5381 55.6171 30.3159 55.6171 36.2093ZM50.9044 33.105C50.523 32.7291 49.8955 32.7169 49.514 33.105L43.3124 39.2167L39.0919 35.0452C38.7105 34.6693 38.083 34.6693 37.6892 35.0452C37.2955 35.4211 37.3078 36.0396 37.6892 36.4276L42.6111 41.2781C42.9925 41.6541 43.6201 41.6662 44.0015 41.2781L50.8921 34.4874C51.2859 34.0993 51.2859 33.4809 50.9044 33.105Z" fill="#FABC3D"/>
<path d="M49.2064 29.3093H37.4062C36.8648 29.3093 36.4218 29.8793 36.4218 30.5947V39.447C36.4218 40.1503 36.8648 40.7202 37.4062 40.7202H49.2064C49.7478 40.7202 50.1908 40.1503 50.1908 39.447V30.5947C50.1908 29.8793 49.7478 29.3093 49.2064 29.3093ZM48.222 38.6588H38.3783V31.3829H48.222V38.6588Z" fill="white"/>
<path d="M31.4999 29.3093H19.6874C19.146 29.3093 18.7031 29.8793 18.7031 30.5947V39.447C18.7031 40.1503 19.146 40.7202 19.6874 40.7202H31.4999C32.0413 40.7202 32.4843 40.1503 32.4843 39.447V30.5947C32.4843 29.8793 32.0413 29.3093 31.4999 29.3093ZM30.5156 38.6588H20.6718V31.3829H30.5156V38.6588Z" fill="white"/>
<path d="M13.7935 29.3093H1.98102C1.43961 29.3093 0.996643 29.8793 0.996643 30.5947V39.447C0.996643 40.1503 1.43961 40.7202 1.98102 40.7202H13.7812C14.3226 40.7202 14.7656 40.1503 14.7656 39.447V30.5947C14.7656 29.8793 14.3349 29.3093 13.7935 29.3093ZM12.8091 38.6588H2.96539V31.3829H12.8091V38.6588Z" fill="white"/>
<path d="M49.2064 0.970215H1.98102C1.43961 0.970215 0.996643 1.54015 0.996643 2.25561V23.5131C0.996643 24.2164 1.43961 24.7985 1.98102 24.7985H49.2064C49.7478 24.7985 50.1908 24.2286 50.1908 23.5131V2.25561C50.1908 1.54015 49.7478 0.970215 49.2064 0.970215ZM48.222 22.7128H2.96539V2.91043H48.222V22.7128Z" fill="white"/>
</svg>
