<svg width="122" height="98" viewBox="0 0 122 98" fill="none" xmlns="http://www.w3.org/2000/svg">
<path d="M60.3473 0L13.9849 24.4045V40.8298H19.0703V27.5028L60.3473 5.7722L101.624 27.5028V40.8298H106.71V24.4045L60.3473 0ZM60.3473 92.2702L46.8285 85.1399H35.8947L60.3473 98L84.8 85.1399H73.8662L60.3473 92.2702Z" fill="white"/>
<path fill-rule="evenodd" clip-rule="evenodd" d="M113.83 79.7495V71.0912L113.321 70.5395L107.134 68.0778V56.3212L106.668 55.7694L92.1317 49.8275L91.2841 49.7426L76.96 52.7985L77.0448 23.6828C77.0448 23.4282 76.8329 23.1735 76.4939 23.0037L56.3639 13.7937C55.9401 13.6239 55.4316 13.5815 54.9654 13.7088C54.5416 13.8361 54.245 14.1332 54.245 14.4728V26.1869L37.5901 32.6807C37.2087 32.8504 36.9544 33.1051 36.9544 33.4022V49.6577L21.2318 46.3896C21.0199 46.3472 20.8504 46.3472 20.6809 46.3896L20.6385 46.3472L20.3419 46.4745L9.62 51.4403C9.36573 51.5676 9.19622 51.7374 9.19622 51.9496V78.0518L0 82.6356C0.720441 82.4658 24.3679 77.3303 57.6353 77.3303C90.9027 77.3303 120.992 82.4658 121.924 82.6356L113.83 79.7495ZM14.7478 74.7413L12.4594 75.675V74.2744L14.7478 73.3407V74.7413ZM14.7478 70.6244L12.4594 71.5581V70.1575L14.7478 69.2238V70.6244ZM14.7478 66.5074L12.4594 67.4412V66.0406L14.7478 65.1068V66.5074ZM14.7478 62.6027L12.4594 63.5364V62.1358L14.7478 61.2021V62.6027ZM14.7478 58.4858L12.4594 59.4195V58.0613L14.7478 57.1276V58.4858ZM14.7478 54.3688L12.4594 55.3026V53.902L14.7478 52.9682V54.3688ZM18.3924 73.2134L16.0616 74.1471V72.7889L18.3924 71.8127V73.2134ZM18.3924 69.0964L16.104 70.0302V68.672L18.4348 67.6958V69.0964H18.3924ZM18.3924 65.0219L16.0616 65.9557V64.5975L18.3924 63.6213V65.0219ZM18.3924 61.0748L16.0616 62.0085V60.6503L18.3924 59.6742V61.0748ZM18.3924 56.9578L16.0616 57.8916V56.5334L18.3924 55.5572V56.9578ZM18.3924 52.8409L16.0616 53.7746V52.4165L18.3924 51.4403V52.8409ZM28.4786 73.0436L25.6816 72.5767V71.1761L28.4786 71.643V73.0436ZM28.4786 68.9691L25.6816 68.5022V67.1016L28.4786 67.5685V68.9691ZM28.4786 64.937L25.6816 64.4702V63.0696L28.4786 63.5364V64.937ZM28.4786 60.8625L25.6816 60.3957V58.9951L28.4786 59.4619V60.8625ZM28.4786 56.8305L25.6816 56.3636V54.963L28.4786 55.4299V56.8305ZM28.4786 52.7985L25.6816 52.3316V50.931L28.4786 51.3978V52.7985ZM32.547 73.6378L29.75 73.1709V71.7703L32.547 72.2372V73.6378ZM32.547 69.6057L29.75 69.1389V67.7383L32.547 68.2051V69.6057ZM32.547 65.5312L29.75 65.0644V63.6638L32.547 64.1306V65.5312ZM32.547 61.4992L29.75 61.0323V59.6317L32.547 60.0986V61.4992ZM32.547 57.4671L29.75 57.0003V55.5997L32.547 56.0665V57.4671ZM32.547 53.3927L29.75 52.9258V51.5252L32.547 51.992V53.3927ZM45.6844 71.7279L41.8279 73.2982V70.9639L45.6844 69.3935V71.7279ZM45.6844 64.8522L41.8279 66.4225V64.0882L45.6844 62.5178V64.8522ZM45.6844 57.9765L41.8279 59.5044V57.2125L45.6844 55.6421V57.9765ZM45.6844 51.7374L41.8279 53.3078V50.9734L45.6844 49.403V51.7374ZM45.6844 44.9041L41.8279 46.4745V44.1402L45.6844 42.5698V44.9041ZM45.6844 37.986L41.8279 39.5564V37.222L45.6844 35.6516V37.986ZM51.787 69.1813L47.9305 70.7517V68.4598L51.787 66.847V69.1813ZM51.787 62.3056L47.9305 63.876V61.5841L51.787 59.9713V62.3056ZM51.787 55.4299L47.9305 57.0003V54.7084L51.787 53.0956V55.4299ZM51.787 49.2333L47.9305 50.8036V48.5117L51.787 46.8989V49.2333ZM51.787 42.3151L47.9305 43.8855V41.5936L51.787 39.9808V42.3151ZM51.787 35.9063L47.9305 37.4767V35.2272L51.787 33.6144V35.9063ZM65.1363 67.2714L60.6866 65.4888V62.8149L65.1363 64.6824V67.2714ZM65.1363 59.3771L60.6866 57.5945V54.9206L65.1363 56.7881V59.3771ZM65.1363 51.4827L60.6866 49.7001V47.0263L65.1363 48.8937V51.4827ZM65.1363 44.3099L60.6866 42.5273V39.8535L65.1363 41.6785V44.3099ZM65.1363 36.4156L60.6866 34.633V31.9591L65.1363 33.8266V36.4156ZM65.1363 28.9881L60.6866 27.1631V24.4892L65.1363 26.3567V28.9881ZM72.1712 70.1999L67.7214 68.4173V65.7435L72.1712 67.526V70.1999ZM72.1712 62.3056L67.7214 60.523V57.8491L72.1712 59.6317V62.3056ZM72.1712 54.4113L67.7214 52.6287V49.9548L72.1712 51.7374V54.4113ZM72.1712 47.2385L67.7214 45.4559V42.782L72.1712 44.5646V47.2385ZM72.1712 39.3441L67.7214 37.5616V34.8877L72.1712 36.6703V39.3441ZM72.1712 31.4498L67.7214 29.6672V26.9933L72.1712 28.7759V31.4498ZM79.418 72.5767V71.3459L88.8261 69.3935L88.8685 70.5819L79.418 72.5767ZM79.418 68.7144V67.4836L88.8261 65.5312L88.8685 66.7196L79.418 68.7144ZM79.418 64.8522V63.6213L88.8685 61.669L88.9109 62.8574L79.418 64.8522ZM79.3756 61.1597V59.9288L88.8261 57.9765L88.8685 59.1648L79.3756 61.1597ZM79.3756 57.5096V56.2788L88.8261 54.2839L88.8685 55.4723L79.3756 57.5096ZM94.5896 54.7508L103.871 58.4433V59.8439L94.5896 56.1514V54.7508ZM94.5896 59.6742L103.871 63.3667V64.7673L94.5896 61.0748V59.6742ZM94.5896 64.3853L103.871 68.0778V69.4784L94.5896 65.7859V64.3853ZM94.5049 70.5819L94.4201 69.1813L103.871 72.6616L103.955 74.0622L94.5049 70.5819Z" fill="white"/>
</svg>
