<svg width="20" height="20" viewBox="0 0 20 20" fill="none" xmlns="http://www.w3.org/2000/svg">
<path fill-rule="evenodd" clip-rule="evenodd" d="M18.75 17.8688L14.0312 13.125C16.3746 10.2976 16.0822 6.12775 13.3672 3.65506C10.6522 1.18237 6.47324 1.2799 3.87657 3.87657C1.2799 6.47324 1.18236 10.6522 3.65505 13.3672C6.12774 16.0822 10.2976 16.3746 13.125 14.0313L17.8687 18.75L18.75 17.8688ZM3.12501 8.75C3.12501 5.6434 5.64341 3.125 8.75001 3.125C11.8566 3.125 14.375 5.6434 14.375 8.75C14.375 11.8566 11.8566 14.375 8.75001 14.375C5.64341 14.375 3.12501 11.8566 3.12501 8.75Z" fill="white"/>
<mask id="mask30" mask-type="alpha" maskUnits="userSpaceOnUse" x="1" y="1" width="18" height="18">
<path fill-rule="evenodd" clip-rule="evenodd" d="M18.75 17.8688L14.0312 13.125C16.3746 10.2976 16.0822 6.12775 13.3672 3.65506C10.6522 1.18237 6.47324 1.2799 3.87657 3.87657C1.2799 6.47324 1.18236 10.6522 3.65505 13.3672C6.12774 16.0822 10.2976 16.3746 13.125 14.0313L17.8687 18.75L18.75 17.8688ZM3.12501 8.75C3.12501 5.6434 5.64341 3.125 8.75001 3.125C11.8566 3.125 14.375 5.6434 14.375 8.75C14.375 11.8566 11.8566 14.375 8.75001 14.375C5.64341 14.375 3.12501 11.8566 3.12501 8.75Z" fill="white"/>
</mask>
<g mask="url(#mask30)">
</g>
</svg>
